<?xml version="1.0" encoding="utf-8"?>
<!-- Generator: Adobe Illustrator 18.0.0, SVG Export Plug-In . SVG Version: 6.00 Build 0)  -->
<!DOCTYPE svg PUBLIC "-//W3C//DTD SVG 1.1//EN" "http://www.w3.org/Graphics/SVG/1.1/DTD/svg11.dtd">
<svg version="1.1" id="Layer_2" xmlns="http://www.w3.org/2000/svg" xmlns:xlink="http://www.w3.org/1999/xlink" x="0px" y="0px"
	 viewBox="1188 174.1 584.1 559.9" enable-background="new 1188 174.1 584.1 559.9" xml:space="preserve">
<g opacity="0.29" enable-background="new    ">
	<path fill="#4F332B" d="M1772,370.8c0-0.2,0.1-0.4,0.1-0.6c-0.4-8.7-3.8-18.4-11.9-27.3c-8.2-8.9-36-33.2-74.4-39.5
		c-38.4-6.3-74.9,5.8-82.1,8.2c-7.3,2.3-31.8,12.1-48.7,26.6c-16.9,14.5-40.9,44.9-47.9,70.2s-2.3,66.6,0.3,80
		c2.7,13.4,11.2,30.3,11.2,30.3s-13.8,16.7-20.9,28.2c-6.4,10.4-13.9,25.7-15.4,28.7c-1.6-3-9.3-18.2-15.9-28.3
		c-7.4-11.4-21.6-27.8-21.6-27.8s8.2-17.2,10.6-30.6c2.4-13.5,6.1-54.9-1.4-80s-32.2-55-49.5-69.1c-17.2-14.1-41.9-23.3-49.2-25.5
		c-7.3-2.1-44.1-13.5-82.3-6.4c-38.3,7.1-65.5,32.1-73.5,41.1c-8,9-11.2,18.9-11.3,27.6c0,0.1,0.1,0.2,0.1,0.3c0,0.3-0.1,0.7-0.1,1
		c0.1,11.2,8.2,20.4,18.7,22.3c1.6,0.3,3.2,0.5,4.8,0.5c12.6-0.1,22.8-10.5,22.7-23.2c-0.1-10.6-7.4-19.3-17.1-21.9
		c8.9-11,27.9-29,58.4-35.4c34.9-7.4,61.5-0.1,80.7,6.9c18.9,7,30.4,17.3,38.6,23.1c8.2,5.8,31.6,32.2,41.8,59.4
		c10.4,27.6,6.1,67.6,4,79.4c-2.1,11.8-6.7,21.6-6.7,21.6s-14.1-12.7-32.9-12.5c-28.8,0.3-54,25.2-54,25.2s29.7,30.1,54.3,29.9
		c24.3-0.3,37-21.1,37-21.1c17.8,14.1,38.1,57.2,38.1,57.2s-17,31.5-16.5,73.2c0.6,57.4,23.9,71.2,24.3,71.5l0,0l0,0l0,0l0,0
		c0.4-0.3,23.3-14.5,22.7-72c-0.5-41.7-18.2-72.8-18.2-72.8s19.4-43.6,36.8-58c0,0,13.1,20.6,37.4,20.3
		c24.6-0.3,53.7-31.1,53.7-31.1s-25.7-24.3-54.5-24c-18.7,0.2-32.6,13.2-32.6,13.2s-4.9-9.7-7.3-21.5s-7.6-51.7,2.2-79.5
		c9.7-27.4,32.4-54.3,40.5-60.3c8-6,17.1-16,38.1-23.9c19.3-5.8,45.5-15.3,80.5-8.8c30.7,5.8,50.1,23.4,59.3,34.2
		c-9.5,2.9-16.5,11.7-16.4,22.1c0.1,12.6,10.5,22.8,23.2,22.7c12.6-0.1,22.8-10.5,22.7-23.2C1772.1,371.3,1772,371.1,1772,370.8z
		 M1401.5,537.4c-14.8,0.2-27.9-13.9-27.9-13.9s13.4-8.8,27.3-8.9c14-0.1,26.1,8.4,26.1,8.4S1416.3,537.2,1401.5,537.4z
		 M1496.1,662.6c0.3,29.2-12.3,42.9-12.4,42.9c-0.1-0.1-13-13.4-13.4-42.7c-0.3-27,10.4-52.1,12.3-56.1
		C1484.5,610.7,1495.8,635.6,1496.1,662.6z M1562.1,512.7c14-0.1,27.5,8.4,27.5,8.4s-12.7,14.4-27.6,14.6c-14.8,0.2-25.9-14-25.9-14
		S1548.1,512.9,1562.1,512.7z"/>
	<path fill="#4F332B" d="M1491.7,214c-0.3-22.1-7.3-39.9-15.7-39.9c-8.4,0.1-15,18.1-14.8,40.2c0.3,22.1,16.9,137.7,16.9,137.7
		S1492,236.1,1491.7,214z"/>
	<path fill="#4F332B" d="M1477,352c0,0-15.2-86.4-20.1-101.2s-13.3-22.8-18.9-18c-5.6,4.9-6.2,20.9-1.4,35.7
		C1441.6,283.4,1477,352,1477,352z"/>
	<path fill="#4F332B" d="M1475.9,351.9c0,0-32.4-57.6-39.7-66c-7.3-8.4-15.7-9.1-18.9-1.7c-3.1,7.5,0.2,20.4,7.5,28.8
		C1432,321.4,1475.9,351.9,1475.9,351.9z"/>
	<path fill="#4F332B" d="M1517.5,267.9c4.5-14.9,3.5-30.9-2.2-35.7c-5.7-4.8-13.9,3.4-18.5,18.3c-4.5,14.9-17.7,101.6-17.7,101.6
		S1513.1,282.8,1517.5,267.9z"/>
	<path fill="#4F332B" d="M1480.4,352c0,0,43.1-31.4,50.2-39.9c7.1-8.6,10.1-21.5,6.8-28.9c-3.3-7.5-11.7-6.5-18.8,2.1
		C1511.4,293.8,1480.4,352,1480.4,352z"/>
</g>
</svg>
