<?xml version="1.0" encoding="utf-8"?>
<!-- Generator: Adobe Illustrator 18.0.0, SVG Export Plug-In . SVG Version: 6.00 Build 0)  -->
<!DOCTYPE svg PUBLIC "-//W3C//DTD SVG 1.1//EN" "http://www.w3.org/Graphics/SVG/1.1/DTD/svg11.dtd">
<svg version="1.1" id="Layer_2" xmlns="http://www.w3.org/2000/svg" xmlns:xlink="http://www.w3.org/1999/xlink" x="0px" y="0px"
	 viewBox="369.5 257.5 90 41.4" enable-background="new 369.5 257.5 90 41.4" xml:space="preserve">
<path fill="#7f9498" d="M458.7,295.7c-4.3-2-8-3.7-11.2-6.1c-3.3-2.4-5.5-4.3-9.7-9.7c-6.1-7.8-10-14.2-16.4-19.1
	c-6.5-4.8-17-5.1-23.7,4c-6.1,8.2-3.7,18.6,2.5,22.3c5.8,3.6-0.5,5.9-8.2,5.8c-4.3-0.1-6.7-0.2-9.7-1.1c-0.8-0.3-1.5-0.5-2.3-0.8
	c-7.1-2.8-9.4-10.8-7.6-15.4c1.7-4.4,7-9.4,12.6-7c5.4,2.3,5.8,7.3,5.1,9.8c-1.1,3.8-5.1,4.3-5.1,4.1c0.1,1.2,4.3,0.8,5.7-2.4
	c1.9-4.3-0.1-10.4-5.3-12.4s-12.7-0.3-15.2,7.5c-2.1,6.4,2.5,13.7,8.6,16.5c0,0,0,0,0.1,0.1c0.1,0,0.1,0.1,0.2,0.1
	c0.2,0.1,0.4,0.2,0.6,0.3c0.8,0.3,1.7,0.6,2.5,0.8c4.4,1.2,9.8,2,14.5,1.7c5.7-0.4,14.7-2.8,18.2-6c2.1-2,3-3.9,3.3-5.6
	c0.1-0.4,0.1-0.8,0.1-1.2c0-0.9-0.3-1.7-0.7-2.4c-0.1-0.1-0.1-0.1-0.1-0.2c-0.9-1.3-2.3-2.2-4-2.2c-2.6,0-4.7,2.1-4.7,4.7
	c0,2.6,2.1,4.7,4.7,4.7c0.5,0,0.9-0.1,1.3-0.2c-2.3,2.4-8,3.8-13.7-0.2c-6.6-4.6-5-14.8-1.4-19.7c5.1-6.9,13.9-5.7,17.6-3.9
	c5.3,2.7,8.6,6.2,13.6,12.5c4.1,5.3,9.1,11.6,16.5,18.2c3.5,3.1,4,4.1-5.2,3.2c-7.8-0.7-13.2-4-12.3-3c2.1,2.2,10.8,5.2,16.9,5.5
	C449,299,463.1,297.7,458.7,295.7z"/>
</svg>
